# xmcd
#
# Track frame offsets: 
#        150
#        22898
#        40027
#        56120
#        80773
#        98083
#        119707
#        149134
#        174679
#        208077
#
# Disc length: 3392 seconds
#
# Revision: 2
# Processed by: cddbd v1.5.2PL0 Copyright (c) Steve Scherf et al.
# Submitted via: ExactAudioCopy v0.99pb5
#
DISCID=940d3e0a
DTITLE=Spooky Tooth - Live in Germany 2004
DYEAR=2004
DGENRE=Blues
TTITLE0=Waitin' for the Wind
TTITLE1=Sunshine Help Me
TTITLE2=That Was the Only Yesterday
TTITLE3=The Wrong Time
TTITLE4=Feelin' Bad
TTITLE5=Wildfire
TTITLE6=Better by You, Better Than Me
TTITLE7=Tobacco Road
TTITLE8=Hangman Hang My Shell on a Tree
TTITLE9=Evil Woman
EXTD=YEAR: 2004
EXTT0=
EXTT1=
EXTT2=
EXTT3=
EXTT4=
EXTT5=
EXTT6=
EXTT7=
EXTT8=
EXTT9=
PLAYORDER=
